<svg width="60" height="60" viewBox="0 0 60 60" fill="none" xmlns="http://www.w3.org/2000/svg">
<path d="M30 32.5V52.5V32.5Z" fill="#E4E4E4"/>
<path d="M30 32.5V52.5" stroke="#E4E4E4" stroke-width="6" stroke-linecap="round" stroke-linejoin="round"/>
<path d="M9.99999 37.2475C8.14259 35.3498 6.74141 33.0543 5.90258 30.5348C5.06375 28.0154 4.80926 25.3381 5.15839 22.7058C5.50753 20.0734 6.45113 17.555 7.91773 15.3413C9.38433 13.1277 11.3355 11.2768 13.6233 9.92888C15.9112 8.58097 18.4758 7.77139 21.1229 7.56145C23.77 7.35151 26.4302 7.74672 28.9019 8.71715C31.3736 9.68758 33.5921 11.2078 35.3893 13.1626C37.1865 15.1174 38.5153 17.4556 39.275 20H43.75C46.1638 19.9997 48.5136 20.7758 50.4525 22.2136C52.3913 23.6514 53.8163 25.6747 54.5169 27.9845C55.2176 30.2944 55.1567 32.7683 54.3433 35.0409C53.5299 37.3135 52.0072 39.2643 50 40.605" stroke="#E4E4E4" stroke-width="6" stroke-linecap="round" stroke-linejoin="round"/>
<path d="M20 42.5L30 32.5L40 42.5" stroke="#E4E4E4" stroke-width="6" stroke-linecap="round" stroke-linejoin="round"/>
</svg>
