<svg width="352" height="65" viewBox="0 0 352 65" fill="none" xmlns="http://www.w3.org/2000/svg">
<path d="M30 36.5V56.5Z" fill="#E4E4E4"/>
<path d="M30 36.5V56.5" stroke="#E4E4E4" stroke-width="6" stroke-linecap="round" stroke-linejoin="round"/>
<path d="M9.99999 41.2475C8.14259 39.3498 6.74141 37.0543 5.90258 34.5348C5.06375 32.0154 4.80926 29.3381 5.15839 26.7058C5.50753 24.0734 6.45113 21.555 7.91773 19.3413C9.38433 17.1277 11.3355 15.2768 13.6233 13.9289C15.9112 12.581 18.4758 11.7714 21.1229 11.5614C23.77 11.3515 26.4302 11.7467 28.9019 12.7172C31.3736 13.6876 33.5921 15.2078 35.3893 17.1626C37.1865 19.1174 38.5153 21.4556 39.275 24H43.75C46.1638 23.9997 48.5136 24.7758 50.4525 26.2136C52.3913 27.6514 53.8163 29.6747 54.5169 31.9845C55.2176 34.2944 55.1567 36.7683 54.3433 39.0409C53.5299 41.3135 52.0072 43.2643 50 44.605" stroke="#E4E4E4" stroke-width="6" stroke-linecap="round" stroke-linejoin="round"/>
<path d="M20 46.5L30 36.5L40 46.5" stroke="#E4E4E4" stroke-width="6" stroke-linecap="round" stroke-linejoin="round"/>
<path d="M350 15.5254L334.983 53.4237C333.977 56.0452 332.88 58.1243 331.692 59.661C330.549 61.1977 329.223 62.3051 327.715 62.9831C326.206 63.661 324.446 64 322.435 64C320.789 64 319.257 63.774 317.84 63.322C316.469 62.9153 315.258 62.3503 314.206 61.6271L315.989 56C316.858 56.7232 317.772 57.2655 318.732 57.6271C319.737 57.9887 320.812 58.1695 321.955 58.1695C323.189 58.1695 324.286 57.8305 325.246 57.1525C326.252 56.5198 327.143 55.2316 327.92 53.2881L329.429 49.6271L325.795 41.2203L315.098 15.5254H323.326L330.937 36.8136L332.926 43.1864L335.189 36.2034L342.389 15.5254H350Z" fill="#E4E4E4" stroke="#E4E4E4" stroke-width="2"/>
<path d="M278.514 49.4237V15.5254H285.028L285.508 24.339L284.548 23.3898C285.188 21.4463 286.103 19.8418 287.291 18.5763C288.525 17.2655 289.965 16.3164 291.611 15.7288C293.302 15.1413 295.085 14.8475 296.96 14.8475C299.382 14.8475 301.554 15.322 303.474 16.2712C305.439 17.1752 306.994 18.5537 308.137 20.4068C309.279 22.2599 309.851 24.6102 309.851 27.4576V49.4237H302.514V29.6949C302.514 26.3503 301.805 24.0452 300.388 22.7797C299.017 21.4689 297.28 20.8136 295.177 20.8136C293.668 20.8136 292.205 21.1752 290.788 21.8983C289.371 22.5763 288.183 23.6836 287.223 25.2203C286.308 26.7571 285.851 28.8136 285.851 31.3898V49.4237H278.514Z" fill="#E4E4E4" stroke="#E4E4E4" stroke-width="2"/>
<path d="M271.517 49.4237H263.769L259.449 37.6949H240.455L236.135 49.4237H228.592L245.666 4.67796H254.443L271.517 49.4237ZM242.512 31.7966H257.392L249.986 10.9153L242.512 31.7966Z" fill="#E4E4E4" stroke="#E4E4E4" stroke-width="2"/>
<path d="M191.775 49.4237V44.1356C196.118 41.0621 199.752 38.3503 202.678 36C205.649 33.6497 208.027 31.4802 209.809 29.4915C211.592 27.5028 212.872 25.6271 213.649 23.8644C214.472 22.0565 214.884 20.226 214.884 18.3729C214.884 15.9774 214.129 14.0339 212.621 12.5424C211.112 11.0508 209.009 10.3051 206.312 10.3051C203.478 10.3051 201.215 11.2542 199.524 13.1525C197.878 15.0056 196.941 17.5593 196.712 20.8136L190.335 17.8983C190.655 15.0508 191.501 12.5876 192.872 10.5085C194.244 8.42938 196.095 6.82486 198.427 5.69491C200.804 4.56497 203.547 4 206.655 4C209.215 4 211.455 4.36158 213.375 5.08474C215.341 5.80791 216.986 6.82486 218.312 8.13559C219.638 9.40113 220.644 10.8927 221.329 12.6102C222.061 14.3277 222.426 16.1582 222.426 18.1017C222.426 20.9492 221.718 23.7062 220.301 26.3729C218.884 28.9943 216.644 31.6836 213.581 34.4407C210.518 37.1977 206.495 40.1582 201.512 43.322V43.4576C202.061 43.3672 202.815 43.322 203.775 43.322C204.735 43.2768 205.695 43.2542 206.655 43.2542C207.615 43.209 208.392 43.1864 208.987 43.1864H223.249V49.4237H191.775Z" fill="#E4E4E4" stroke="#E4E4E4" stroke-width="2"/>
<path d="M186.408 15.5254L171.391 53.4237C170.385 56.0452 169.288 58.1243 168.1 59.661C166.957 61.1977 165.631 62.3051 164.123 62.9831C162.614 63.661 160.854 64 158.843 64C157.197 64 155.666 63.774 154.248 63.322C152.877 62.9153 151.666 62.3503 150.614 61.6271L152.397 56C153.266 56.7232 154.18 57.2655 155.14 57.6271C156.146 57.9887 157.22 58.1695 158.363 58.1695C159.597 58.1695 160.694 57.8305 161.654 57.1525C162.66 56.5198 163.551 55.2316 164.328 53.2881L165.837 49.6271L162.203 41.2203L151.506 15.5254H159.734L167.345 36.8136L169.334 43.1864L171.597 36.2034L178.797 15.5254H186.408Z" fill="#E4E4E4" stroke="#E4E4E4" stroke-width="2"/>
<path d="M114.922 49.4237V15.5254H121.436L121.916 24.339L120.956 23.3898C121.596 21.4463 122.511 19.8418 123.699 18.5763C124.933 17.2655 126.373 16.3164 128.019 15.7288C129.711 15.1413 131.493 14.8475 133.368 14.8475C135.79 14.8475 137.962 15.322 139.882 16.2712C141.848 17.1752 143.402 18.5537 144.545 20.4068C145.687 22.2599 146.259 24.6102 146.259 27.4576V49.4237H138.922V29.6949C138.922 26.3503 138.213 24.0452 136.796 22.7797C135.425 21.4689 133.688 20.8136 131.585 20.8136C130.076 20.8136 128.613 21.1752 127.196 21.8983C125.779 22.5763 124.591 23.6836 123.631 25.2203C122.716 26.7571 122.259 28.8136 122.259 31.3898V49.4237H114.922Z" fill="#E4E4E4" stroke="#E4E4E4" stroke-width="2"/>
<path d="M107.925 49.4237H100.177L95.8568 37.6949H76.8627L72.5428 49.4237H65L82.0741 4.67796H90.8511L107.925 49.4237ZM78.9198 31.7966H93.7997L86.394 10.9153L78.9198 31.7966Z" fill="#E4E4E4" stroke="#E4E4E4" stroke-width="2"/>
</svg>
